<svg width="26" height="26" viewBox="0 0 26 26" fill="none" xmlns="http://www.w3.org/2000/svg">
<g clip-path="url(#clip0)">
<path d="M25.9916 11.375V0L22.1729 3.81873C19.8247 1.4625 16.5828 0 12.9916 0C5.80907 0 0.0078125 5.81748 0.0078125 13C0.0078125 20.1826 5.80907 26.0001 12.9916 26.0001C19.0447 26.0001 24.1147 21.8563 25.5528 16.2501H22.1729C20.8322 20.0363 17.241 22.75 12.9916 22.75C7.60475 22.75 3.24162 18.3869 3.24162 13C3.24162 7.61316 7.60475 3.25003 12.9916 3.25003C15.681 3.25003 18.0942 4.37128 19.8572 6.13443L14.6166 11.3751H25.9916V11.375Z" fill="white"/>
</g>
<defs>
<clipPath id="clip0">
<rect width="26" height="26" fill="white"/>
</clipPath>
</defs>
</svg>
