<svg width="36" height="36" viewBox="0 0 36 36" fill="none" xmlns="http://www.w3.org/2000/svg">
<path fill-rule="evenodd" clip-rule="evenodd" d="M31.6017 0C34.0292 0 36 1.97086 36 4.39833V31.6017C36 34.0291 34.0291 36 31.6017 36H24.1156V22.4357H28.7985L29.6895 16.6264H24.1156V12.8564C24.1156 11.2672 24.8942 9.71796 27.3908 9.71796H29.925V4.77218C29.925 4.77218 27.6251 4.3797 25.4263 4.3797C20.8357 4.3797 17.8353 7.16189 17.8353 12.1987V16.6264H12.7325V22.4357H17.8353V36H4.39833C1.97086 36 0 34.0291 0 31.6017V4.39833C0 1.97086 1.97079 0 4.39833 0H31.6017V0Z" fill="white"/>
</svg>
