<svg width="36" height="36" viewBox="0 0 36 36" fill="none" xmlns="http://www.w3.org/2000/svg">
<path d="M29.7 0H6.3C2.82061 0 0 2.82061 0 6.3V29.7C0 33.1794 2.82061 36 6.3 36H29.7C33.1794 36 36 33.1794 36 29.7V6.3C36 2.82061 33.1794 0 29.7 0Z" fill="white"/>
<path d="M5.41069 11.1206H9.73069C9.82101 11.1205 9.90922 11.1479 9.98359 11.1991C10.058 11.2504 10.1149 11.3231 10.1469 11.4075C10.6251 12.6394 12.6107 17.46 14.4276 17.8538C15.7776 17.8538 15.2994 11.4413 13.5838 11.4413C13.1338 11.4413 14.3826 10.6425 14.4669 10.6088C16.0613 10.1718 17.7438 10.1718 19.3382 10.6088C20.1988 10.9688 20.3451 11.9756 20.3676 12.8306C20.3901 13.6856 19.4113 17.3306 20.6994 17.7244C22.3869 18.2419 24.5582 12.9488 25.0644 11.6494C25.0974 11.566 25.1547 11.4945 25.229 11.4443C25.3033 11.3941 25.391 11.3676 25.4807 11.3681H30.2901C30.3644 11.3679 30.4376 11.3861 30.5032 11.421C30.5688 11.456 30.6247 11.5067 30.6659 11.5685C30.7071 11.6304 30.7324 11.7014 30.7394 11.7754C30.7465 11.8494 30.7351 11.924 30.7063 11.9925C29.7157 14.2525 28.5279 16.4209 27.1569 18.4725C27.0404 18.6418 26.9857 18.8461 27.0021 19.051C27.0185 19.2559 27.105 19.4489 27.2469 19.5975C28.6869 21.1388 32.6244 25.5038 30.3744 25.5038H25.5201C25.3946 25.5041 25.2705 25.4776 25.1561 25.4262C25.0416 25.3748 24.9394 25.2996 24.8563 25.2056C24.1026 24.3731 21.9088 22.0556 20.9188 22.2413C20.0976 22.3931 20.0188 23.7881 20.0582 24.6994C20.0706 24.9345 19.9904 25.1651 19.8348 25.3418C19.6791 25.5184 19.4605 25.6271 19.2257 25.6444C18.3651 25.695 17.1894 25.7175 17.0826 25.7119C13.6513 25.4925 11.6207 23.2031 9.68007 20.6494C7.64728 17.9419 6.06154 14.9262 4.98319 11.7169C4.96115 11.649 4.95538 11.5768 4.96634 11.5063C4.97729 11.4357 5.00468 11.3688 5.04628 11.3107C5.08788 11.2527 5.14253 11.2053 5.20583 11.1723C5.26913 11.1392 5.33931 11.1216 5.41069 11.1206Z" fill="black"/>
</svg>
