<svg width="36" height="36" viewBox="0 0 36 36" fill="none" xmlns="http://www.w3.org/2000/svg">
<path d="M21.7266 10.5938C21.7266 11.625 21.3633 12.5039 20.6367 13.2305C19.9102 13.957 19.0312 14.3203 18 14.3203C16.9688 14.3203 16.0898 13.957 15.3633 13.2305C14.6367 12.5039 14.2734 11.625 14.2734 10.5938C14.2734 9.5625 14.6367 8.68359 15.3633 7.95703C16.0898 7.23047 16.9688 6.86719 18 6.86719C19.0312 6.86719 19.9102 7.23047 20.6367 7.95703C21.3633 8.68359 21.7266 9.5625 21.7266 10.5938ZM26.7422 19.1016C26.5859 18.7891 26.3672 18.5391 26.0859 18.3516C25.8047 18.1641 25.4336 18.0898 24.9727 18.1289C24.5117 18.168 24.0391 18.3828 23.5547 18.7734C23.3984 18.8984 23.1719 19.0547 22.875 19.2422C22.5781 19.4297 21.9453 19.6797 20.9766 19.9922C20.0078 20.3047 19.0156 20.4609 18 20.4609C16.9844 20.4609 16.0156 20.3203 15.0938 20.0391C14.1719 19.7578 13.5 19.4766 13.0781 19.1953L12.4453 18.7734C11.9609 18.3828 11.4883 18.168 11.0273 18.1289C10.5664 18.0898 10.1953 18.1641 9.91406 18.3516C9.63281 18.5391 9.41406 18.7891 9.25781 19.1016C8.91406 19.8047 8.89844 20.3867 9.21094 20.8477C9.52344 21.3086 10.2031 21.8828 11.25 22.5703C12.5469 23.3984 14.3125 23.9219 16.5469 24.1406L15.3516 25.3594C13.1328 27.5781 11.6406 29.0625 10.875 29.8125C10.5312 30.1562 10.3594 30.5664 10.3594 31.043C10.3594 31.5195 10.5312 31.9297 10.875 32.2734L11.0859 32.4844C11.4297 32.8281 11.8398 33 12.3164 33C12.793 33 13.2031 32.8281 13.5469 32.4844L18.0234 28.0078C19.8047 29.8047 21.2969 31.2969 22.5 32.4844C22.8438 32.8281 23.2539 33 23.7305 33C24.207 33 24.6172 32.8281 24.9609 32.4844L25.1719 32.2734C25.5156 31.9297 25.6875 31.5195 25.6875 31.043C25.6875 30.5664 25.5156 30.1562 25.1719 29.8125L20.6953 25.3594L19.4766 24.1406C21.6797 23.9219 23.4375 23.3984 24.75 22.5703C25.7969 21.8828 26.4766 21.3086 26.7891 20.8477C27.1016 20.3867 27.0859 19.8047 26.7422 19.1016ZM25.5938 10.5938C25.5938 8.5 24.8516 6.71094 23.3672 5.22656C21.8828 3.74219 20.0938 3 18 3C15.9062 3 14.1172 3.74219 12.6328 5.22656C11.1484 6.71094 10.4062 8.5 10.4062 10.5938C10.4062 12.6875 11.1484 14.4766 12.6328 15.9609C14.1172 17.4453 15.9062 18.1875 18 18.1875C20.0938 18.1875 21.8828 17.4453 23.3672 15.9609C24.8516 14.4766 25.5938 12.6875 25.5938 10.5938ZM36 6.75V29.25C36 31.1094 35.3398 32.6992 34.0195 34.0195C32.6992 35.3398 31.1094 36 29.25 36H6.75C4.89062 36 3.30078 35.3398 1.98047 34.0195C0.660156 32.6992 0 31.1094 0 29.25V6.75C0 4.89062 0.660156 3.30078 1.98047 1.98047C3.30078 0.660156 4.89062 0 6.75 0H29.25C31.1094 0 32.6992 0.660156 34.0195 1.98047C35.3398 3.30078 36 4.89062 36 6.75Z" fill="white"/>
</svg>
