<svg width="30" height="30" viewBox="0 0 30 30" fill="none" xmlns="http://www.w3.org/2000/svg">
<path fill-rule="evenodd" clip-rule="evenodd" d="M29.6645 4.41949L25.5809 0.335508C25.3664 0.120586 25.0752 0 24.7714 0C24.4676 0 24.1767 0.120586 23.9618 0.335508L10.4504 13.8469C10.3114 13.9855 10.2111 14.1572 10.1576 14.3458L8.55456 20.0329C8.44235 20.4317 8.55421 20.86 8.84729 21.1531C9.06485 21.3707 9.35724 21.4886 9.65683 21.4886C9.76024 21.4886 9.86483 21.4745 9.96714 21.4458L15.6542 19.8428C15.8431 19.7893 16.0149 19.6886 16.1534 19.55L29.6645 6.03861C30.1118 5.5916 30.1118 4.86639 29.6645 4.41949ZM13.2123 18.1515L11.3133 18.6866L11.8487 16.7879L13.2123 18.1515ZM15.3823 17.0829L27.2359 5.22902L24.7714 2.76451L12.9176 14.6182L15.3823 17.0829ZM27.939 17.7099C27.3065 17.7099 26.7939 18.2225 26.7939 18.8549V27.7099H2.29008V3.2061H11.1451C11.7775 3.2061 12.2901 2.69352 12.2901 2.06106C12.2901 1.42859 11.7775 0.916016 11.1451 0.916016H1.14504C0.512578 0.916016 0 1.42859 0 2.06106V28.855C0 29.4874 0.512637 30 1.14504 30H27.9389C28.5714 30 29.0839 29.4874 29.0839 28.855V18.8549C29.084 18.2225 28.5714 17.7099 27.939 17.7099Z" fill="white"/>
</svg>
