<svg width="36" height="36" viewBox="0 0 36 36" fill="none" xmlns="http://www.w3.org/2000/svg">
<path d="M35.7804 33.6593L25.3226 23.2015C27.3061 20.7528 28.5001 17.6396 28.5001 14.2501C28.5001 6.39263 22.1075 0 14.25 0C6.39256 0 0 6.39263 0 14.2501C0 22.1075 6.39263 28.5002 14.2501 28.5002C17.6396 28.5002 20.7528 27.3061 23.2015 25.3227L33.6593 35.7804C33.9523 36.0733 34.427 36.0733 34.72 35.7804L35.7804 34.72C36.0733 34.427 36.0733 33.9522 35.7804 33.6593ZM14.2501 25.5001C8.04646 25.5001 3.00004 20.4537 3.00004 14.2501C3.00004 8.04646 8.04646 3.00004 14.2501 3.00004C20.4537 3.00004 25.5001 8.04646 25.5001 14.2501C25.5001 20.4537 20.4537 25.5001 14.2501 25.5001Z" fill="#F1E7DD"/>
</svg>
