<svg width="36" height="36" viewBox="0 0 36 36" fill="none" xmlns="http://www.w3.org/2000/svg">
<path fill-rule="evenodd" clip-rule="evenodd" d="M31.6017 0C34.0292 0 36 1.97086 36 4.39833V31.6017C36 34.0291 34.0291 36 31.6017 36H4.39833C1.97086 36 0 34.0291 0 31.6017V4.39833C0 1.97086 1.97079 0 4.39833 0H31.6017V0ZM18 5.69531C14.6583 5.69531 14.2392 5.70945 12.9268 5.76935C11.6171 5.82912 10.7227 6.0371 9.93994 6.34134C9.13078 6.65578 8.4446 7.07653 7.76053 7.76053C7.07646 8.4446 6.65571 9.13085 6.34127 9.93994C6.0371 10.7227 5.82912 11.6171 5.76928 12.9268C5.70945 14.2392 5.69531 14.6583 5.69531 18C5.69531 21.3417 5.70945 21.7608 5.76928 23.0732C5.82912 24.3829 6.0371 25.2773 6.34127 26.0601C6.65571 26.8691 7.07646 27.5554 7.76053 28.2395C8.4446 28.9235 9.13078 29.3443 9.93994 29.6587C10.7227 29.9629 11.6171 30.1709 12.9268 30.2306C14.2392 30.2906 14.6583 30.3047 18 30.3047C21.3417 30.3047 21.7608 30.2906 23.0732 30.2306C24.3829 30.1709 25.2773 29.9629 26.0601 29.6587C26.8691 29.3443 27.5554 28.9235 28.2395 28.2395C28.9235 27.5554 29.3443 26.8691 29.6587 26.0601C29.9629 25.2773 30.1709 24.3829 30.2306 23.0732C30.2906 21.7608 30.3047 21.3417 30.3047 18C30.3047 14.6583 30.2906 14.2392 30.2306 12.9268C30.1709 11.6171 29.9629 10.7227 29.6587 9.93994C29.3443 9.13085 28.9235 8.4446 28.2395 7.76053C27.5554 7.07653 26.8691 6.65578 26.0601 6.34134C25.2773 6.0371 24.3829 5.82912 23.0732 5.76935C21.7608 5.70945 21.3417 5.69531 18 5.69531ZM18 7.91241C21.2855 7.91241 21.6747 7.92492 22.9721 7.98413C24.1718 8.0389 24.8233 8.23936 25.257 8.40776C25.8313 8.631 26.2412 8.8977 26.6718 9.32822C27.1024 9.75881 27.369 10.1687 27.5922 10.743C27.7607 11.1767 27.9612 11.8282 28.0159 13.0279C28.0751 14.3253 28.0877 14.7145 28.0877 18C28.0877 21.2855 28.0751 21.6747 28.0159 22.9721C27.9612 24.1718 27.7607 24.8233 27.5922 25.257C27.369 25.8313 27.1024 26.2412 26.6718 26.6718C26.2412 27.1024 25.8313 27.369 25.257 27.5922C24.8233 27.7607 24.1718 27.9612 22.9721 28.0159C21.6749 28.0751 21.2857 28.0877 18 28.0877C14.7143 28.0877 14.3252 28.0751 13.0279 28.0159C11.8282 27.9612 11.1767 27.7607 10.743 27.5922C10.1687 27.369 9.75881 27.1024 9.32822 26.6718C8.89762 26.2412 8.63093 25.8313 8.40776 25.257C8.23929 24.8233 8.03883 24.1718 7.98406 22.9721C7.92485 21.6747 7.91234 21.2855 7.91234 18C7.91234 14.7145 7.92485 14.3253 7.98406 13.0279C8.03883 11.8282 8.23929 11.1767 8.40776 10.743C8.63093 10.1687 8.89762 9.75881 9.32822 9.32822C9.75881 8.8977 10.1687 8.631 10.743 8.40776C11.1767 8.23936 11.8282 8.0389 13.0279 7.98413C14.3253 7.92492 14.7145 7.91241 18 7.91241ZM18 11.6814C14.5103 11.6814 11.6814 14.5103 11.6814 18C11.6814 21.4897 14.5103 24.3186 18 24.3186C21.4897 24.3186 24.3186 21.4897 24.3186 18C24.3186 14.5103 21.4897 11.6814 18 11.6814ZM18 22.1015C15.7347 22.1015 13.8985 20.2653 13.8985 18C13.8985 15.7347 15.7347 13.8985 18 13.8985C20.2653 13.8985 22.1015 15.7347 22.1015 18C22.1015 20.2653 20.2653 22.1015 18 22.1015ZM26.0449 11.4318C26.0449 12.2472 25.3837 12.9082 24.5682 12.9082C23.7528 12.9082 23.0917 12.2472 23.0917 11.4318C23.0917 10.6163 23.7528 9.9552 24.5682 9.9552C25.3837 9.9552 26.0449 10.6163 26.0449 11.4318Z" fill="white"/>
</svg>
